{
  "accessors": [
    {
      "bufferView": 2,
      "componentType": 5126,
      "count": 15360,
      "max": [
        7.3220677375793457,
        3.6884255409240723,
        4.6654729843139648
      ],
      "min": [
        -5.0931272506713867,
        -11.98488712310791,
        -2.3848671913146973
      ],
      "type": "VEC3"
    },
    {
      "bufferView": 2,
      "byteOffset": 184320,
      "componentType": 5126,
      "count": 15360,
      "max": [
        0.99989473819732666,
        0.99990260601043701,
        0.99999141693115234
      ],
      "min": [
        -0.99981212615966797,
        -0.999947190284729,
        -0.99995517730712891
      ],
      "type": "VEC3"
    },
    {
      "bufferView": 1,
      "componentType": 5126,
      "count": 15360,
      "max": [
        1,
        1.0000001192092896
      ],
      "min": [
        0,
        0
      ],
      "type": "VEC2"
    },
    {
      "bufferView": 0,
      "componentType": 5125,
      "count": 90498,
      "max": [
        15359
      ],
      "min": [
        0
      ],
      "type": "SCALAR"
    },
    {
      "bufferView": 2,
      "byteOffset": 368640,
      "componentType": 5126,
      "count": 7387,
      "max": [
        8.8930702209472656,
        -0.4364599883556366,
        4.2927498817443848
      ],
      "min": [
        -0.67227369546890259,
        -11.598312377929688,
        -1.9091086387634277
      ],
      "type": "VEC3"
    },
    {
      "bufferView": 2,
      "byteOffset": 457284,
      "componentType": 5126,
      "count": 7387,
      "max": [
        0.99973297119140625,
        0.99994194507598877,
        0.99972784519195557
      ],
      "min": [
        -0.99982357025146484,
        -0.99794220924377441,
        -0.99980401992797852
      ],
      "type": "VEC3"
    },
    {
      "bufferView": 1,
      "byteOffset": 122880,
      "componentType": 5126,
      "count": 7387,
      "max": [
        0,
        0
      ],
      "min": [
        0,
        0
      ],
      "type": "VEC2"
    },
    {
      "bufferView": 0,
      "byteOffset": 361992,
      "componentType": 5125,
      "count": 44310,
      "max": [
        7386
      ],
      "min": [
        0
      ],
      "type": "SCALAR"
    },
    {
      "bufferView": 2,
      "byteOffset": 545928,
      "componentType": 5126,
      "count": 2126,
      "max": [
        1.4923505783081055,
        4.4956340789794922,
        3.5698599815368652
      ],
      "min": [
        -1.5379065275192261,
        1.3390519618988037,
        0.17175573110580444
      ],
      "type": "VEC3"
    },
    {
      "bufferView": 2,
      "byteOffset": 571440,
      "componentType": 5126,
      "count": 2126,
      "max": [
        0.99994909763336182,
        0.9981924295425415,
        0.9952930212020874
      ],
      "min": [
        -0.99809622764587402,
        -0.99998712539672852,
        -0.99947798252105713
      ],
      "type": "VEC3"
    },
    {
      "bufferView": 1,
      "byteOffset": 181976,
      "componentType": 5126,
      "count": 2126,
      "max": [
        0,
        0
      ],
      "min": [
        0,
        0
      ],
      "type": "VEC2"
    },
    {
      "bufferView": 0,
      "byteOffset": 539232,
      "componentType": 5125,
      "count": 12744,
      "max": [
        2125
      ],
      "min": [
        0
      ],
      "type": "SCALAR"
    },
    {
      "bufferView": 2,
      "byteOffset": 596952,
      "componentType": 5126,
      "count": 262,
      "max": [
        1.3651221990585327,
        2.9092204570770264,
        3.1348280906677246
      ],
      "min": [
        -0.63050800561904907,
        1.8336038589477539,
        2.1441333293914795
      ],
      "type": "VEC3"
    },
    {
      "bufferView": 2,
      "byteOffset": 600096,
      "componentType": 5126,
      "count": 262,
      "max": [
        0.99971795082092285,
        0.99476563930511475,
        0.99422907829284668
      ],
      "min": [
        -0.99536758661270142,
        -0.92421096563339233,
        -0.85700613260269165
      ],
      "type": "VEC3"
    },
    {
      "bufferView": 1,
      "byteOffset": 198984,
      "componentType": 5126,
      "count": 262,
      "max": [
        0.89429134130477905,
        0.94539594650268555
      ],
      "min": [
        0.058640286326408386,
        0.13496133685112
      ],
      "type": "VEC2"
    },
    {
      "bufferView": 0,
      "byteOffset": 590208,
      "componentType": 5125,
      "count": 1158,
      "max": [
        261
      ],
      "min": [
        0
      ],
      "type": "SCALAR"
    },
    {
      "bufferView": 2,
      "byteOffset": 603240,
      "componentType": 5126,
      "count": 31744,
      "max": [
        0.98723137378692627,
        0.99757665395736694,
        0.98723149299621582
      ],
      "min": [
        -0.98723101615905762,
        -0.99757665395736694,
        -0.98723101615905762
      ],
      "type": "VEC3"
    },
    {
      "bufferView": 2,
      "byteOffset": 984168,
      "componentType": 5126,
      "count": 31744,
      "max": [
        0.99939960241317749,
        0.99695432186126709,
        0.99939972162246704
      ],
      "min": [
        -0.99939960241317749,
        -0.99695432186126709,
        -0.99939972162246704
      ],
      "type": "VEC3"
    },
    {
      "bufferView": 1,
      "byteOffset": 201080,
      "componentType": 5126,
      "count": 31744,
      "max": [
        0.99517381191253662,
        0.99271094799041748
      ],
      "min": [
        0.0048269662074744701,
        0.0072150025516748428
      ],
      "type": "VEC2"
    },
    {
      "bufferView": 0,
      "byteOffset": 594840,
      "componentType": 5125,
      "count": 47616,
      "max": [
        31743
      ],
      "min": [
        0
      ],
      "type": "SCALAR"
    },
    {
      "bufferView": 2,
      "byteOffset": 1365096,
      "componentType": 5126,
      "count": 25650,
      "max": [
        3.7980690002441406,
        7.2420344352722168,
        3.7658133506774902
      ],
      "min": [
        -1.5781515836715698,
        -1.3848837614059448,
        -3.5411407947540283
      ],
      "type": "VEC3"
    },
    {
      "bufferView": 2,
      "byteOffset": 1672896,
      "componentType": 5126,
      "count": 25650,
      "max": [
        0.99977922439575195,
        0.99999475479125977,
        0.9999690055847168
      ],
      "min": [
        -0.99991798400878906,
        -0.99998760223388672,
        -0.99985289573669434
      ],
      "type": "VEC3"
    },
    {
      "bufferView": 1,
      "byteOffset": 455032,
      "componentType": 5126,
      "count": 25650,
      "max": [
        0.56414133310317993,
        0.72764068841934204
      ],
      "min": [
        0,
        0
      ],
      "type": "VEC2"
    },
    {
      "bufferView": 0,
      "byteOffset": 785304,
      "componentType": 5125,
      "count": 153336,
      "max": [
        25649
      ],
      "min": [
        0
      ],
      "type": "SCALAR"
    },
    {
      "bufferView": 2,
      "byteOffset": 1980696,
      "componentType": 5126,
      "count": 936,
      "max": [
        1.1497037410736084,
        0.60623550415039062,
        -2.4680106639862061
      ],
      "min": [
        -1.148740291595459,
        -0.28914695978164673,
        -3.1475894451141357
      ],
      "type": "VEC3"
    },
    {
      "bufferView": 2,
      "byteOffset": 1991928,
      "componentType": 5126,
      "count": 936,
      "max": [
        0.99946343898773193,
        0.99892264604568481,
        0.50338351726531982
      ],
      "min": [
        -0.99716311693191528,
        -0.87001889944076538,
        -0.99939262866973877
      ],
      "type": "VEC3"
    },
    {
      "bufferView": 1,
      "byteOffset": 660232,
      "componentType": 5126,
      "count": 936,
      "max": [
        0.6981358528137207,
        0.85955429077148438
      ],
      "min": [
        0.014324307441711426,
        0.14678569138050079
      ],
      "type": "VEC2"
    },
    {
      "bufferView": 0,
      "byteOffset": 1398648,
      "componentType": 5125,
      "count": 4632,
      "max": [
        935
      ],
      "min": [
        0
      ],
      "type": "SCALAR"
    },
    {
      "bufferView": 2,
      "byteOffset": 2003160,
      "componentType": 5126,
      "count": 5525,
      "max": [
        3.4925715923309326,
        4.258760929107666,
        4.2171053886413574
      ],
      "min": [
        -3.4607021808624268,
        -3.2658357620239258,
        -8.4086771011352539
      ],
      "type": "VEC3"
    },
    {
      "bufferView": 2,
      "byteOffset": 2069460,
      "componentType": 5126,
      "count": 5525,
      "max": [
        0.99985617399215698,
        0.99999630451202393,
        0.99999982118606567
      ],
      "min": [
        -0.99995166063308716,
        -0.99999994039535522,
        -0.99999785423278809
      ],
      "type": "VEC3"
    },
    {
      "bufferView": 0,
      "byteOffset": 1417176,
      "componentType": 5125,
      "count": 15786,
      "max": [
        5524
      ],
      "min": [
        0
      ],
      "type": "SCALAR"
    }
  ],
  "asset": {
    "extras": {
      "author": "andyvy (https://sketchfab.com/andyvy)",
      "license": "CC-BY-4.0 (http://creativecommons.org/licenses/by/4.0/)",
      "source": "https://sketchfab.com/3d-models/mew-vs-mewtwo-459f1cbd8b304a5f9ac77abb63d51219",
      "title": "Mew vs Mewtwo"
    },
    "generator": "Sketchfab-9.86.0",
    "version": "2.0"
  },
  "bufferViews": [
    {
      "buffer": 0,
      "byteLength": 1480320,
      "byteOffset": 0,
      "name": "floatBufferViews",
      "target": 34963
    },
    {
      "buffer": 0,
      "byteLength": 667720,
      "byteOffset": 1480320,
      "byteStride": 8,
      "name": "floatBufferViews",
      "target": 34962
    },
    {
      "buffer": 0,
      "byteLength": 2135760,
      "byteOffset": 2148040,
      "byteStride": 12,
      "name": "floatBufferViews",
      "target": 34962
    }
  ],
  "buffers": [
    {
      "byteLength": 4283800,
      "uri": "scene.bin"
    }
  ],
  "extensionsRequired": [
    "KHR_materials_pbrSpecularGlossiness"
  ],
  "extensionsUsed": [
    "KHR_materials_pbrSpecularGlossiness"
  ],
  "images": [
    {
      "uri": "textures/olho.001_diffuse.png"
    },
    {
      "uri": "textures/Material_diffuse.png"
    },
    {
      "uri": "textures/Material_emissive.png"
    },
    {
      "uri": "textures/OLHO-MEW_diffuse.png"
    }
  ],
  "materials": [
    {
      "doubleSided": true,
      "emissiveFactor": [
        0,
        0,
        0
      ],
      "extensions": {
        "KHR_materials_pbrSpecularGlossiness": {
          "diffuseFactor": [
            0.39266999999999996,
            0.35555799999999993,
            0.45753100000000013,
            1
          ],
          "glossinessFactor": 0.5,
          "specularFactor": [
            0,
            0,
            0
          ]
        }
      },
      "name": "corpo"
    },
    {
      "doubleSided": true,
      "emissiveFactor": [
        0,
        0,
        0
      ],
      "extensions": {
        "KHR_materials_pbrSpecularGlossiness": {
          "diffuseFactor": [
            0.50288600000000006,
            0.258183,
            0.341914,
            1
          ],
          "glossinessFactor": 0.5,
          "specularFactor": [
            0,
            0,
            0
          ]
        }
      },
      "name": "calda"
    },
    {
      "doubleSided": true,
      "emissiveFactor": [
        0,
        0,
        0
      ],
      "extensions": {
        "KHR_materials_pbrSpecularGlossiness": {
          "diffuseFactor": [
            0.39266999999999996,
            0.35555799999999993,
            0.45753100000000013,
            1
          ],
          "glossinessFactor": 0.5,
          "specularFactor": [
            0,
            0,
            0
          ]
        }
      },
      "name": "corpo.001"
    },
    {
      "doubleSided": true,
      "emissiveFactor": [
        0,
        0,
        0
      ],
      "extensions": {
        "KHR_materials_pbrSpecularGlossiness": {
          "diffuseFactor": [
            1,
            1,
            1,
            1
          ],
          "diffuseTexture": {
            "index": 0,
            "texCoord": 0
          },
          "glossinessFactor": 0.5,
          "specularFactor": [
            0,
            0,
            0
          ]
        }
      },
      "name": "olho.001"
    },
    {
      "alphaMode": "BLEND",
      "doubleSided": true,
      "emissiveFactor": [
        1,
        1,
        1
      ],
      "emissiveTexture": {
        "index": 2,
        "texCoord": 0
      },
      "extensions": {
        "KHR_materials_pbrSpecularGlossiness": {
          "diffuseFactor": [
            1,
            1,
            1,
            1
          ],
          "diffuseTexture": {
            "index": 1,
            "texCoord": 0
          },
          "glossinessFactor": 0,
          "specularFactor": [
            0.7308550871623577,
            0.011290597136422307,
            0.011290597136422307
          ]
        }
      },
      "name": "Material"
    },
    {
      "doubleSided": true,
      "emissiveFactor": [
        0,
        0,
        0
      ],
      "extensions": {
        "KHR_materials_pbrSpecularGlossiness": {
          "diffuseFactor": [
            1,
            0.63591699999999995,
            0.95905600000000002,
            1
          ],
          "glossinessFactor": 0.5,
          "specularFactor": [
            0,
            0,
            0
          ]
        }
      },
      "name": "material"
    },
    {
      "doubleSided": true,
      "emissiveFactor": [
        0,
        0,
        0
      ],
      "extensions": {
        "KHR_materials_pbrSpecularGlossiness": {
          "diffuseFactor": [
            1,
            1,
            1,
            1
          ],
          "diffuseTexture": {
            "index": 3,
            "texCoord": 0
          },
          "glossinessFactor": 0.5,
          "specularFactor": [
            0,
            0,
            0
          ]
        }
      },
      "name": "OLHO-MEW"
    },
    {
      "doubleSided": true,
      "emissiveFactor": [
        1,
        0.51638745433168554,
        0.0057888687640924212
      ],
      "extensions": {
        "KHR_materials_pbrSpecularGlossiness": {
          "diffuseFactor": [
            0.86667549389163356,
            0.79309019180172269,
            0.00096468886864444154,
            1
          ],
          "glossinessFactor": 0,
          "specularFactor": [
            1,
            1,
            1
          ]
        }
      },
      "name": "Material.002"
    }
  ],
  "meshes": [
    {
      "primitives": [
        {
          "attributes": {
            "NORMAL": 1,
            "POSITION": 0,
            "TEXCOORD_0": 2
          },
          "indices": 3,
          "material": 0,
          "mode": 4
        }
      ]
    },
    {
      "primitives": [
        {
          "attributes": {
            "NORMAL": 5,
            "POSITION": 4,
            "TEXCOORD_0": 6
          },
          "indices": 7,
          "material": 1,
          "mode": 4
        }
      ]
    },
    {
      "primitives": [
        {
          "attributes": {
            "NORMAL": 9,
            "POSITION": 8,
            "TEXCOORD_0": 10
          },
          "indices": 11,
          "material": 2,
          "mode": 4
        }
      ]
    },
    {
      "primitives": [
        {
          "attributes": {
            "NORMAL": 13,
            "POSITION": 12,
            "TEXCOORD_0": 14
          },
          "indices": 15,
          "material": 3,
          "mode": 4
        }
      ]
    },
    {
      "primitives": [
        {
          "attributes": {
            "NORMAL": 17,
            "POSITION": 16,
            "TEXCOORD_0": 18
          },
          "indices": 19,
          "material": 4,
          "mode": 4
        }
      ]
    },
    {
      "primitives": [
        {
          "attributes": {
            "NORMAL": 21,
            "POSITION": 20,
            "TEXCOORD_0": 22
          },
          "indices": 23,
          "material": 5,
          "mode": 4
        }
      ]
    },
    {
      "primitives": [
        {
          "attributes": {
            "NORMAL": 25,
            "POSITION": 24,
            "TEXCOORD_0": 26
          },
          "indices": 27,
          "material": 6,
          "mode": 4
        }
      ]
    },
    {
      "primitives": [
        {
          "attributes": {
            "NORMAL": 29,
            "POSITION": 28
          },
          "indices": 30,
          "material": 7,
          "mode": 4
        }
      ]
    }
  ],
  "nodes": [
    {
      "children": [
        1
      ],
      "name": "RootNode (gltf orientation matrix)",
      "rotation": [
        -0.70710678118654746,
        -0,
        -0,
        0.70710678118654757
      ]
    },
    {
      "children": [
        2
      ],
      "name": "RootNode (model correction matrix)"
    },
    {
      "children": [
        3
      ],
      "name": "root"
    },
    {
      "children": [
        4,
        9,
        11,
        14
      ],
      "matrix": [
        1,
        0,
        0,
        0,
        0,
        2.2204460492503131e-16,
        1,
        0,
        0,
        -1,
        2.2204460492503131e-16,
        0,
        0,
        0,
        0,
        1
      ],
      "name": "GLTF_SceneRootNode"
    },
    {
      "children": [
        5,
        6,
        7,
        8
      ],
      "matrix": [
        0.60846916652836369,
        -0.35122391126938107,
        -0.39519196120904393,
        0,
        0.52493358511775645,
        0.47321109739594008,
        0.38766691525597513,
        0,
        0.063084493078978524,
        -0.54998424533917534,
        0.58592433409016242,
        0,
        -0.97788441181182861,
        5.5478482246398926,
        -0.94092869758605957,
        1
      ],
      "name": "mewtwo_0"
    },
    {
      "mesh": 0,
      "name": ""
    },
    {
      "mesh": 1,
      "name": ""
    },
    {
      "mesh": 2,
      "name": ""
    },
    {
      "mesh": 3,
      "name": ""
    },
    {
      "children": [
        10
      ],
      "matrix": [
        1.163865327835083,
        0,
        0,
        0,
        0,
        1.163865327835083,
        0,
        0,
        0,
        0,
        1.163865327835083,
        0,
        -1.365691065788269,
        8.0656061172485352,
        2.4871964454650879,
        1
      ],
      "name": "ENERGYBALL_2"
    },
    {
      "mesh": 4,
      "name": ""
    },
    {
      "children": [
        12,
        13
      ],
      "matrix": [
        0.34590469686975134,
        0,
        -0.70146146906949824,
        0,
        0,
        0.78211140632629395,
        0,
        0,
        0.70146146906949824,
        0,
        0.34590469686975134,
        0,
        4.0226664543151855,
        1.1038036346435547,
        8.3787498474121094,
        1
      ],
      "name": "mew_7"
    },
    {
      "mesh": 5,
      "name": ""
    },
    {
      "mesh": 6,
      "name": ""
    },
    {
      "children": [
        15
      ],
      "matrix": [
        1,
        0,
        0,
        0,
        0,
        1,
        0,
        0,
        0,
        0,
        1,
        0,
        3.8469078540802002,
        1.8333120346069336,
        8.1447353363037109,
        1
      ],
      "name": "relampago_8"
    },
    {
      "mesh": 7,
      "name": ""
    }
  ],
  "samplers": [
    {
      "magFilter": 9729,
      "minFilter": 9987,
      "wrapS": 10497,
      "wrapT": 10497
    }
  ],
  "scene": 0,
  "scenes": [
    {
      "name": "OSG_Scene",
      "nodes": [
        0
      ]
    }
  ],
  "textures": [
    {
      "sampler": 0,
      "source": 0
    },
    {
      "sampler": 0,
      "source": 1
    },
    {
      "sampler": 0,
      "source": 2
    },
    {
      "sampler": 0,
      "source": 3
    }
  ]
}

